<?xml version="1.0" encoding="UTF-8" standalone="no"?>
<!DOCTYPE svg PUBLIC "-//W3C//DTD SVG 1.1//EN"
 "http://www.w3.org/Graphics/SVG/1.1/DTD/svg11.dtd">
<!-- Generated by graphviz version 2.47.0 (20210316.0004)
 -->
<!-- Title: dbml Pages: 1 -->
<svg width="1924pt" height="2506pt"
 viewBox="0.00 0.00 1924.13 2505.92" xmlns="http://www.w3.org/2000/svg" xmlns:xlink="http://www.w3.org/1999/xlink">
<g id="graph0" class="graph" transform="scale(1 1) rotate(0) translate(4 2501.92)">
<title>dbml</title>
<!-- Category -->
<g id="Category" class="node">
<title>Category</title>
<ellipse fill="none" stroke="black" stroke-width="0" cx="960.9" cy="-1907.96" rx="210.02" ry="130.22"/>
<polygon fill="#1d71b8" stroke="transparent" points="814.9,-1937.96 814.9,-1997.96 1107.9,-1997.96 1107.9,-1937.96 814.9,-1937.96"/>
<polygon fill="none" stroke="#29235c" points="814.9,-1937.96 814.9,-1997.96 1107.9,-1997.96 1107.9,-1937.96 814.9,-1937.96"/>
<text text-anchor="start" x="834.25" y="-1959.16" font-family="Helvetica,sans-Serif" font-weight="bold" font-size="32.00" fill="#ffffff"> &#160;&#160;&#160;&#160;&#160;&#160;Category &#160;&#160;&#160;&#160;&#160;&#160;</text>
<polygon fill="#e7e2dd" stroke="transparent" points="814.9,-1877.96 814.9,-1937.96 1107.9,-1937.96 1107.9,-1877.96 814.9,-1877.96"/>
<polygon fill="none" stroke="#29235c" points="814.9,-1877.96 814.9,-1937.96 1107.9,-1937.96 1107.9,-1877.96 814.9,-1877.96"/>
<text text-anchor="start" x="825.9" y="-1899.16" font-family="Helvetica,sans-Serif" font-weight="bold" font-size="32.00" fill="#29235c">id</text>
<text text-anchor="start" x="850.79" y="-1899.16" font-family="Helvetica,sans-Serif" font-size="32.00" fill="#29235c"> &#160;&#160;&#160;</text>
<text text-anchor="start" x="954.68" y="-1899.16" font-family="Helvetica,sans-Serif" font-style="italic" font-size="32.00" fill="#29235c">INTEGER</text>
<polygon fill="#e7e2dd" stroke="transparent" points="814.9,-1817.96 814.9,-1877.96 1107.9,-1877.96 1107.9,-1817.96 814.9,-1817.96"/>
<polygon fill="none" stroke="#29235c" points="814.9,-1817.96 814.9,-1877.96 1107.9,-1877.96 1107.9,-1817.96 814.9,-1817.96"/>
<text text-anchor="start" x="825.6" y="-1838.16" font-family="Helvetica,sans-Serif" font-size="32.00" fill="#29235c">name &#160;&#160;&#160;</text>
<text text-anchor="start" x="940.68" y="-1839.16" font-family="Helvetica,sans-Serif" font-style="italic" font-size="32.00" fill="#29235c">VARCHAR</text>
<polygon fill="none" stroke="#29235c" stroke-width="2" points="813.4,-1816.96 813.4,-1998.96 1108.4,-1998.96 1108.4,-1816.96 813.4,-1816.96"/>
</g>
<!-- Customer -->
<g id="Customer" class="node">
<title>Customer</title>
<ellipse fill="none" stroke="black" stroke-width="0" cx="1600.76" cy="-214.96" rx="216.25" ry="214.92"/>
<polygon fill="#1d71b8" stroke="transparent" points="1449.76,-304.96 1449.76,-364.96 1751.76,-364.96 1751.76,-304.96 1449.76,-304.96"/>
<polygon fill="none" stroke="#29235c" points="1449.76,-304.96 1449.76,-364.96 1751.76,-364.96 1751.76,-304.96 1449.76,-304.96"/>
<text text-anchor="start" x="1469.18" y="-326.16" font-family="Helvetica,sans-Serif" font-weight="bold" font-size="32.00" fill="#ffffff"> &#160;&#160;&#160;&#160;&#160;&#160;Customer &#160;&#160;&#160;&#160;&#160;&#160;</text>
<polygon fill="#e7e2dd" stroke="transparent" points="1449.76,-244.96 1449.76,-304.96 1751.76,-304.96 1751.76,-244.96 1449.76,-244.96"/>
<polygon fill="none" stroke="#29235c" points="1449.76,-244.96 1449.76,-304.96 1751.76,-304.96 1751.76,-244.96 1449.76,-244.96"/>
<text text-anchor="start" x="1460.76" y="-266.16" font-family="Helvetica,sans-Serif" font-weight="bold" font-size="32.00" fill="#29235c">id</text>
<text text-anchor="start" x="1485.65" y="-266.16" font-family="Helvetica,sans-Serif" font-size="32.00" fill="#29235c"> &#160;&#160;&#160;</text>
<text text-anchor="start" x="1598.55" y="-266.16" font-family="Helvetica,sans-Serif" font-style="italic" font-size="32.00" fill="#29235c">INTEGER</text>
<polygon fill="#e7e2dd" stroke="transparent" points="1449.76,-184.96 1449.76,-244.96 1751.76,-244.96 1751.76,-184.96 1449.76,-184.96"/>
<polygon fill="none" stroke="#29235c" points="1449.76,-184.96 1449.76,-244.96 1751.76,-244.96 1751.76,-184.96 1449.76,-184.96"/>
<text text-anchor="start" x="1460.76" y="-205.16" font-family="Helvetica,sans-Serif" font-size="32.00" fill="#29235c">name &#160;&#160;&#160;</text>
<text text-anchor="start" x="1584.34" y="-206.16" font-family="Helvetica,sans-Serif" font-style="italic" font-size="32.00" fill="#29235c">VARCHAR</text>
<polygon fill="#e7e2dd" stroke="transparent" points="1449.76,-124.96 1449.76,-184.96 1751.76,-184.96 1751.76,-124.96 1449.76,-124.96"/>
<polygon fill="none" stroke="#29235c" points="1449.76,-124.96 1449.76,-184.96 1751.76,-184.96 1751.76,-124.96 1449.76,-124.96"/>
<text text-anchor="start" x="1460.76" y="-145.16" font-family="Helvetica,sans-Serif" font-size="32.00" fill="#29235c">email &#160;&#160;&#160;</text>
<text text-anchor="start" x="1584.34" y="-146.16" font-family="Helvetica,sans-Serif" font-style="italic" font-size="32.00" fill="#29235c">VARCHAR</text>
<polygon fill="#e7e2dd" stroke="transparent" points="1449.76,-64.96 1449.76,-124.96 1751.76,-124.96 1751.76,-64.96 1449.76,-64.96"/>
<polygon fill="none" stroke="#29235c" points="1449.76,-64.96 1449.76,-124.96 1751.76,-124.96 1751.76,-64.96 1449.76,-64.96"/>
<text text-anchor="start" x="1460.51" y="-85.16" font-family="Helvetica,sans-Serif" font-size="32.00" fill="#29235c">phone &#160;&#160;&#160;</text>
<text text-anchor="start" x="1584.55" y="-86.16" font-family="Helvetica,sans-Serif" font-style="italic" font-size="32.00" fill="#29235c">VARCHAR</text>
<polygon fill="none" stroke="#29235c" stroke-width="2" points="1448.76,-63.96 1448.76,-365.96 1752.76,-365.96 1752.76,-63.96 1448.76,-63.96"/>
</g>
<!-- Employee -->
<g id="Employee" class="node">
<title>Employee</title>
<ellipse fill="none" stroke="black" stroke-width="0" cx="318.2" cy="-2282.96" rx="231.45" ry="214.92"/>
<polygon fill="#1d71b8" stroke="transparent" points="157.2,-2372.96 157.2,-2432.96 480.2,-2432.96 480.2,-2372.96 157.2,-2372.96"/>
<polygon fill="none" stroke="#29235c" points="157.2,-2372.96 157.2,-2432.96 480.2,-2432.96 480.2,-2372.96 157.2,-2372.96"/>
<text text-anchor="start" x="185.32" y="-2394.16" font-family="Helvetica,sans-Serif" font-weight="bold" font-size="32.00" fill="#ffffff"> &#160;&#160;&#160;&#160;&#160;&#160;Employee &#160;&#160;&#160;&#160;&#160;&#160;</text>
<polygon fill="#e7e2dd" stroke="transparent" points="157.2,-2312.96 157.2,-2372.96 480.2,-2372.96 480.2,-2312.96 157.2,-2312.96"/>
<polygon fill="none" stroke="#29235c" points="157.2,-2312.96 157.2,-2372.96 480.2,-2372.96 480.2,-2312.96 157.2,-2312.96"/>
<text text-anchor="start" x="168.2" y="-2334.16" font-family="Helvetica,sans-Serif" font-weight="bold" font-size="32.00" fill="#29235c">id</text>
<text text-anchor="start" x="193.09" y="-2334.16" font-family="Helvetica,sans-Serif" font-size="32.00" fill="#29235c"> &#160;&#160;&#160;</text>
<text text-anchor="start" x="326.98" y="-2334.16" font-family="Helvetica,sans-Serif" font-style="italic" font-size="32.00" fill="#29235c">INTEGER</text>
<polygon fill="#e7e2dd" stroke="transparent" points="157.2,-2252.96 157.2,-2312.96 480.2,-2312.96 480.2,-2252.96 157.2,-2252.96"/>
<polygon fill="none" stroke="#29235c" points="157.2,-2252.96 157.2,-2312.96 480.2,-2312.96 480.2,-2252.96 157.2,-2252.96"/>
<text text-anchor="start" x="168.2" y="-2273.16" font-family="Helvetica,sans-Serif" font-size="32.00" fill="#29235c">name &#160;&#160;&#160;</text>
<text text-anchor="start" x="312.77" y="-2274.16" font-family="Helvetica,sans-Serif" font-style="italic" font-size="32.00" fill="#29235c">VARCHAR</text>
<polygon fill="#e7e2dd" stroke="transparent" points="157.2,-2192.96 157.2,-2252.96 480.2,-2252.96 480.2,-2192.96 157.2,-2192.96"/>
<polygon fill="none" stroke="#29235c" points="157.2,-2192.96 157.2,-2252.96 480.2,-2252.96 480.2,-2192.96 157.2,-2192.96"/>
<text text-anchor="start" x="168.2" y="-2213.16" font-family="Helvetica,sans-Serif" font-size="32.00" fill="#29235c">hire_date &#160;&#160;&#160;</text>
<text text-anchor="start" x="383.87" y="-2214.16" font-family="Helvetica,sans-Serif" font-style="italic" font-size="32.00" fill="#29235c">DATE</text>
<polygon fill="#e7e2dd" stroke="transparent" points="157.2,-2132.96 157.2,-2192.96 480.2,-2192.96 480.2,-2132.96 157.2,-2132.96"/>
<polygon fill="none" stroke="#29235c" points="157.2,-2132.96 157.2,-2192.96 480.2,-2192.96 480.2,-2132.96 157.2,-2132.96"/>
<text text-anchor="start" x="167.79" y="-2153.16" font-family="Helvetica,sans-Serif" font-size="32.00" fill="#29235c">position &#160;&#160;&#160;</text>
<text text-anchor="start" x="312.99" y="-2154.16" font-family="Helvetica,sans-Serif" font-style="italic" font-size="32.00" fill="#29235c">VARCHAR</text>
<polygon fill="none" stroke="#29235c" stroke-width="2" points="155.7,-2131.96 155.7,-2433.96 480.7,-2433.96 480.7,-2131.96 155.7,-2131.96"/>
</g>
<!-- Inventory -->
<g id="Inventory" class="node">
<title>Inventory</title>
<ellipse fill="none" stroke="black" stroke-width="0" cx="318.2" cy="-1024.96" rx="231.45" ry="214.92"/>
<polygon fill="#1d71b8" stroke="transparent" points="157.2,-1114.96 157.2,-1174.96 480.2,-1174.96 480.2,-1114.96 157.2,-1114.96"/>
<polygon fill="none" stroke="#29235c" points="157.2,-1114.96 157.2,-1174.96 480.2,-1174.96 480.2,-1114.96 157.2,-1114.96"/>
<text text-anchor="start" x="190.65" y="-1136.16" font-family="Helvetica,sans-Serif" font-weight="bold" font-size="32.00" fill="#ffffff"> &#160;&#160;&#160;&#160;&#160;&#160;Inventory &#160;&#160;&#160;&#160;&#160;&#160;</text>
<polygon fill="#e7e2dd" stroke="transparent" points="157.2,-1054.96 157.2,-1114.96 480.2,-1114.96 480.2,-1054.96 157.2,-1054.96"/>
<polygon fill="none" stroke="#29235c" points="157.2,-1054.96 157.2,-1114.96 480.2,-1114.96 480.2,-1054.96 157.2,-1054.96"/>
<text text-anchor="start" x="168.2" y="-1076.16" font-family="Helvetica,sans-Serif" font-weight="bold" font-size="32.00" fill="#29235c">id</text>
<text text-anchor="start" x="193.09" y="-1076.16" font-family="Helvetica,sans-Serif" font-size="32.00" fill="#29235c"> &#160;&#160;&#160;</text>
<text text-anchor="start" x="326.98" y="-1076.16" font-family="Helvetica,sans-Serif" font-style="italic" font-size="32.00" fill="#29235c">INTEGER</text>
<polygon fill="#e7e2dd" stroke="transparent" points="157.2,-994.96 157.2,-1054.96 480.2,-1054.96 480.2,-994.96 157.2,-994.96"/>
<polygon fill="none" stroke="#29235c" points="157.2,-994.96 157.2,-1054.96 480.2,-1054.96 480.2,-994.96 157.2,-994.96"/>
<text text-anchor="start" x="167.79" y="-1015.16" font-family="Helvetica,sans-Serif" font-size="32.00" fill="#29235c">location &#160;&#160;&#160;</text>
<text text-anchor="start" x="312.99" y="-1016.16" font-family="Helvetica,sans-Serif" font-style="italic" font-size="32.00" fill="#29235c">VARCHAR</text>
<polygon fill="#e7e2dd" stroke="transparent" points="157.2,-934.96 157.2,-994.96 480.2,-994.96 480.2,-934.96 157.2,-934.96"/>
<polygon fill="none" stroke="#29235c" points="157.2,-934.96 157.2,-994.96 480.2,-994.96 480.2,-934.96 157.2,-934.96"/>
<text text-anchor="start" x="168.2" y="-955.16" font-family="Helvetica,sans-Serif" font-size="32.00" fill="#29235c">part_id &#160;&#160;&#160;</text>
<text text-anchor="start" x="326.98" y="-956.16" font-family="Helvetica,sans-Serif" font-style="italic" font-size="32.00" fill="#29235c">INTEGER</text>
<polygon fill="#e7e2dd" stroke="transparent" points="157.2,-874.96 157.2,-934.96 480.2,-934.96 480.2,-874.96 157.2,-874.96"/>
<polygon fill="none" stroke="#29235c" points="157.2,-874.96 157.2,-934.96 480.2,-934.96 480.2,-874.96 157.2,-874.96"/>
<text text-anchor="start" x="168.2" y="-895.16" font-family="Helvetica,sans-Serif" font-size="32.00" fill="#29235c">quantity &#160;&#160;&#160;</text>
<text text-anchor="start" x="326.98" y="-896.16" font-family="Helvetica,sans-Serif" font-style="italic" font-size="32.00" fill="#29235c">INTEGER</text>
<polygon fill="none" stroke="#29235c" stroke-width="2" points="155.7,-873.96 155.7,-1175.96 480.7,-1175.96 480.7,-873.96 155.7,-873.96"/>
</g>
<!-- Part -->
<g id="Part" class="node">
<title>Part</title>
<ellipse fill="none" stroke="black" stroke-width="0" cx="960.9" cy="-994.96" rx="288.5" ry="257.27"/>
<polygon fill="#1d71b8" stroke="transparent" points="758.9,-1114.96 758.9,-1174.96 1162.9,-1174.96 1162.9,-1114.96 758.9,-1114.96"/>
<polygon fill="none" stroke="#29235c" points="758.9,-1114.96 758.9,-1174.96 1162.9,-1174.96 1162.9,-1114.96 758.9,-1114.96"/>
<text text-anchor="start" x="869.31" y="-1136.16" font-family="Helvetica,sans-Serif" font-weight="bold" font-size="32.00" fill="#ffffff"> &#160;&#160;&#160;&#160;&#160;&#160;Part &#160;&#160;&#160;&#160;&#160;&#160;</text>
<polygon fill="#e7e2dd" stroke="transparent" points="758.9,-1054.96 758.9,-1114.96 1162.9,-1114.96 1162.9,-1054.96 758.9,-1054.96"/>
<polygon fill="none" stroke="#29235c" points="758.9,-1054.96 758.9,-1114.96 1162.9,-1114.96 1162.9,-1054.96 758.9,-1054.96"/>
<text text-anchor="start" x="769.9" y="-1076.16" font-family="Helvetica,sans-Serif" font-weight="bold" font-size="32.00" fill="#29235c">id</text>
<text text-anchor="start" x="794.79" y="-1076.16" font-family="Helvetica,sans-Serif" font-size="32.00" fill="#29235c"> &#160;&#160;&#160;</text>
<text text-anchor="start" x="1009.68" y="-1076.16" font-family="Helvetica,sans-Serif" font-style="italic" font-size="32.00" fill="#29235c">INTEGER</text>
<polygon fill="#e7e2dd" stroke="transparent" points="758.9,-994.96 758.9,-1054.96 1162.9,-1054.96 1162.9,-994.96 758.9,-994.96"/>
<polygon fill="none" stroke="#29235c" points="758.9,-994.96 758.9,-1054.96 1162.9,-1054.96 1162.9,-994.96 758.9,-994.96"/>
<text text-anchor="start" x="769.9" y="-1015.16" font-family="Helvetica,sans-Serif" font-size="32.00" fill="#29235c">name &#160;&#160;&#160;</text>
<text text-anchor="start" x="995.47" y="-1016.16" font-family="Helvetica,sans-Serif" font-style="italic" font-size="32.00" fill="#29235c">VARCHAR</text>
<polygon fill="#e7e2dd" stroke="transparent" points="758.9,-934.96 758.9,-994.96 1162.9,-994.96 1162.9,-934.96 758.9,-934.96"/>
<polygon fill="none" stroke="#29235c" points="758.9,-934.96 758.9,-994.96 1162.9,-994.96 1162.9,-934.96 758.9,-934.96"/>
<text text-anchor="start" x="769.9" y="-955.16" font-family="Helvetica,sans-Serif" font-size="32.00" fill="#29235c">supplier_id &#160;&#160;&#160;</text>
<text text-anchor="start" x="1009.68" y="-956.16" font-family="Helvetica,sans-Serif" font-style="italic" font-size="32.00" fill="#29235c">INTEGER</text>
<polygon fill="#e7e2dd" stroke="transparent" points="758.9,-874.96 758.9,-934.96 1162.9,-934.96 1162.9,-874.96 758.9,-874.96"/>
<polygon fill="none" stroke="#29235c" points="758.9,-874.96 758.9,-934.96 1162.9,-934.96 1162.9,-874.96 758.9,-874.96"/>
<text text-anchor="start" x="769.9" y="-895.16" font-family="Helvetica,sans-Serif" font-size="32.00" fill="#29235c">price &#160;&#160;&#160;</text>
<text text-anchor="start" x="1009.68" y="-896.16" font-family="Helvetica,sans-Serif" font-style="italic" font-size="32.00" fill="#29235c">INTEGER</text>
<polygon fill="#e7e2dd" stroke="transparent" points="758.9,-814.96 758.9,-874.96 1162.9,-874.96 1162.9,-814.96 758.9,-814.96"/>
<polygon fill="none" stroke="#29235c" points="758.9,-814.96 758.9,-874.96 1162.9,-874.96 1162.9,-814.96 758.9,-814.96"/>
<text text-anchor="start" x="769.85" y="-835.16" font-family="Helvetica,sans-Serif" font-size="32.00" fill="#29235c">stock_quantity &#160;&#160;&#160;</text>
<text text-anchor="start" x="1009.79" y="-836.16" font-family="Helvetica,sans-Serif" font-style="italic" font-size="32.00" fill="#29235c">INTEGER</text>
<polygon fill="none" stroke="#29235c" stroke-width="2" points="757.9,-813.96 757.9,-1175.96 1163.9,-1175.96 1163.9,-813.96 757.9,-813.96"/>
</g>
<!-- Inventory&#45;&gt;Part -->
<!-- Inventory&#45;&gt;Part -->
<g id="edge2" class="edge">
<title>Inventory:e&#45;&gt;Part:w</title>
<path fill="none" stroke="#29235c" stroke-width="3" d="M481.2,-964.96C611.71,-964.96 623.31,-1078.72 747.55,-1084.71"/>
<polygon fill="#29235c" stroke="#29235c" stroke-width="3" points="747.82,-1088.22 757.9,-1084.96 747.98,-1081.22 747.82,-1088.22"/>
<text text-anchor="middle" x="751.67" y="-1094.56" font-family="Helvetica,sans-Serif" font-size="32.00" fill="#29235c">*</text>
<text text-anchor="middle" x="490.09" y="-974.56" font-family="Helvetica,sans-Serif" font-size="32.00" fill="#29235c">1</text>
</g>
<!-- Supplier -->
<g id="Supplier" class="node">
<title>Supplier</title>
<ellipse fill="none" stroke="black" stroke-width="0" cx="1600.76" cy="-1188.96" rx="315.24" ry="214.92"/>
<polygon fill="#1d71b8" stroke="transparent" points="1379.76,-1278.96 1379.76,-1338.96 1821.76,-1338.96 1821.76,-1278.96 1379.76,-1278.96"/>
<polygon fill="none" stroke="#29235c" points="1379.76,-1278.96 1379.76,-1338.96 1821.76,-1338.96 1821.76,-1278.96 1379.76,-1278.96"/>
<text text-anchor="start" x="1479.84" y="-1300.16" font-family="Helvetica,sans-Serif" font-weight="bold" font-size="32.00" fill="#ffffff"> &#160;&#160;&#160;&#160;&#160;&#160;Supplier &#160;&#160;&#160;&#160;&#160;&#160;</text>
<polygon fill="#e7e2dd" stroke="transparent" points="1379.76,-1218.96 1379.76,-1278.96 1821.76,-1278.96 1821.76,-1218.96 1379.76,-1218.96"/>
<polygon fill="none" stroke="#29235c" points="1379.76,-1218.96 1379.76,-1278.96 1821.76,-1278.96 1821.76,-1218.96 1379.76,-1218.96"/>
<text text-anchor="start" x="1390.76" y="-1240.16" font-family="Helvetica,sans-Serif" font-weight="bold" font-size="32.00" fill="#29235c">id</text>
<text text-anchor="start" x="1415.65" y="-1240.16" font-family="Helvetica,sans-Serif" font-size="32.00" fill="#29235c"> &#160;&#160;&#160;</text>
<text text-anchor="start" x="1668.55" y="-1240.16" font-family="Helvetica,sans-Serif" font-style="italic" font-size="32.00" fill="#29235c">INTEGER</text>
<polygon fill="#e7e2dd" stroke="transparent" points="1379.76,-1158.96 1379.76,-1218.96 1821.76,-1218.96 1821.76,-1158.96 1379.76,-1158.96"/>
<polygon fill="none" stroke="#29235c" points="1379.76,-1158.96 1379.76,-1218.96 1821.76,-1218.96 1821.76,-1158.96 1379.76,-1158.96"/>
<text text-anchor="start" x="1390.76" y="-1179.16" font-family="Helvetica,sans-Serif" font-size="32.00" fill="#29235c">name &#160;&#160;&#160;</text>
<text text-anchor="start" x="1654.34" y="-1180.16" font-family="Helvetica,sans-Serif" font-style="italic" font-size="32.00" fill="#29235c">VARCHAR</text>
<polygon fill="#e7e2dd" stroke="transparent" points="1379.76,-1098.96 1379.76,-1158.96 1821.76,-1158.96 1821.76,-1098.96 1379.76,-1098.96"/>
<polygon fill="none" stroke="#29235c" points="1379.76,-1098.96 1379.76,-1158.96 1821.76,-1158.96 1821.76,-1098.96 1379.76,-1098.96"/>
<text text-anchor="start" x="1390.28" y="-1119.16" font-family="Helvetica,sans-Serif" font-size="32.00" fill="#29235c">contact_number &#160;&#160;&#160;</text>
<text text-anchor="start" x="1654.55" y="-1120.16" font-family="Helvetica,sans-Serif" font-style="italic" font-size="32.00" fill="#29235c">VARCHAR</text>
<polygon fill="#e7e2dd" stroke="transparent" points="1379.76,-1038.96 1379.76,-1098.96 1821.76,-1098.96 1821.76,-1038.96 1379.76,-1038.96"/>
<polygon fill="none" stroke="#29235c" points="1379.76,-1038.96 1379.76,-1098.96 1821.76,-1098.96 1821.76,-1038.96 1379.76,-1038.96"/>
<text text-anchor="start" x="1390.76" y="-1059.16" font-family="Helvetica,sans-Serif" font-size="32.00" fill="#29235c">address &#160;&#160;&#160;</text>
<text text-anchor="start" x="1654.34" y="-1060.16" font-family="Helvetica,sans-Serif" font-style="italic" font-size="32.00" fill="#29235c">VARCHAR</text>
<polygon fill="none" stroke="#29235c" stroke-width="2" points="1378.76,-1037.96 1378.76,-1339.96 1822.76,-1339.96 1822.76,-1037.96 1378.76,-1037.96"/>
</g>
<!-- Part&#45;&gt;Supplier -->
<!-- Part&#45;&gt;Supplier -->
<g id="edge4" class="edge">
<title>Part:e&#45;&gt;Supplier:w</title>
<path fill="none" stroke="#29235c" stroke-width="3" d="M1163.9,-964.96C1318.62,-964.96 1224.92,-1236.35 1368.49,-1248.54"/>
<polygon fill="#29235c" stroke="#29235c" stroke-width="3" points="1368.63,-1252.05 1378.76,-1248.96 1368.92,-1245.05 1368.63,-1252.05"/>
<text text-anchor="middle" x="1372.54" y="-1258.56" font-family="Helvetica,sans-Serif" font-size="32.00" fill="#29235c">*</text>
<text text-anchor="middle" x="1155" y="-974.56" font-family="Helvetica,sans-Serif" font-size="32.00" fill="#29235c">1</text>
</g>
<!-- Order -->
<g id="Order" class="node">
<title>Order</title>
<ellipse fill="none" stroke="black" stroke-width="0" cx="960.9" cy="-244.96" rx="266.66" ry="172.57"/>
<polygon fill="#1d71b8" stroke="transparent" points="774.9,-304.96 774.9,-364.96 1147.9,-364.96 1147.9,-304.96 774.9,-304.96"/>
<polygon fill="none" stroke="#29235c" points="774.9,-304.96 774.9,-364.96 1147.9,-364.96 1147.9,-304.96 774.9,-304.96"/>
<text text-anchor="start" x="858.26" y="-326.16" font-family="Helvetica,sans-Serif" font-weight="bold" font-size="32.00" fill="#ffffff"> &#160;&#160;&#160;&#160;&#160;&#160;Order &#160;&#160;&#160;&#160;&#160;&#160;</text>
<polygon fill="#e7e2dd" stroke="transparent" points="774.9,-244.96 774.9,-304.96 1147.9,-304.96 1147.9,-244.96 774.9,-244.96"/>
<polygon fill="none" stroke="#29235c" points="774.9,-244.96 774.9,-304.96 1147.9,-304.96 1147.9,-244.96 774.9,-244.96"/>
<text text-anchor="start" x="785.9" y="-266.16" font-family="Helvetica,sans-Serif" font-weight="bold" font-size="32.00" fill="#29235c">id</text>
<text text-anchor="start" x="810.79" y="-266.16" font-family="Helvetica,sans-Serif" font-size="32.00" fill="#29235c"> &#160;&#160;&#160;</text>
<text text-anchor="start" x="994.68" y="-266.16" font-family="Helvetica,sans-Serif" font-style="italic" font-size="32.00" fill="#29235c">INTEGER</text>
<polygon fill="#e7e2dd" stroke="transparent" points="774.9,-184.96 774.9,-244.96 1147.9,-244.96 1147.9,-184.96 774.9,-184.96"/>
<polygon fill="none" stroke="#29235c" points="774.9,-184.96 774.9,-244.96 1147.9,-244.96 1147.9,-184.96 774.9,-184.96"/>
<text text-anchor="start" x="785.49" y="-205.16" font-family="Helvetica,sans-Serif" font-size="32.00" fill="#29235c">customer_id &#160;&#160;&#160;</text>
<text text-anchor="start" x="994.79" y="-206.16" font-family="Helvetica,sans-Serif" font-style="italic" font-size="32.00" fill="#29235c">INTEGER</text>
<polygon fill="#e7e2dd" stroke="transparent" points="774.9,-124.96 774.9,-184.96 1147.9,-184.96 1147.9,-124.96 774.9,-124.96"/>
<polygon fill="none" stroke="#29235c" points="774.9,-124.96 774.9,-184.96 1147.9,-184.96 1147.9,-124.96 774.9,-124.96"/>
<text text-anchor="start" x="785.9" y="-145.16" font-family="Helvetica,sans-Serif" font-size="32.00" fill="#29235c">date &#160;&#160;&#160;</text>
<text text-anchor="start" x="1051.56" y="-146.16" font-family="Helvetica,sans-Serif" font-style="italic" font-size="32.00" fill="#29235c">DATE</text>
<polygon fill="none" stroke="#29235c" stroke-width="2" points="773.4,-123.96 773.4,-365.96 1148.4,-365.96 1148.4,-123.96 773.4,-123.96"/>
</g>
<!-- Order&#45;&gt;Customer -->
<!-- Order&#45;&gt;Customer -->
<g id="edge6" class="edge">
<title>Order:e&#45;&gt;Customer:w</title>
<path fill="none" stroke="#29235c" stroke-width="3" d="M1148.9,-214.96C1281.36,-214.96 1311.35,-271.95 1438.62,-274.85"/>
<polygon fill="#29235c" stroke="#29235c" stroke-width="3" points="1438.73,-278.35 1448.76,-274.96 1438.8,-271.35 1438.73,-278.35"/>
<text text-anchor="middle" x="1442.54" y="-246.16" font-family="Helvetica,sans-Serif" font-size="32.00" fill="#29235c">*</text>
<text text-anchor="middle" x="1140" y="-186.16" font-family="Helvetica,sans-Serif" font-size="32.00" fill="#29235c">1</text>
</g>
<!-- OrderItem -->
<g id="OrderItem" class="node">
<title>OrderItem</title>
<ellipse fill="none" stroke="black" stroke-width="0" cx="318.2" cy="-214.96" rx="226.05" ry="214.92"/>
<polygon fill="#1d71b8" stroke="transparent" points="160.2,-304.96 160.2,-364.96 476.2,-364.96 476.2,-304.96 160.2,-304.96"/>
<polygon fill="none" stroke="#29235c" points="160.2,-304.96 160.2,-364.96 476.2,-364.96 476.2,-304.96 160.2,-304.96"/>
<text text-anchor="start" x="183.95" y="-326.16" font-family="Helvetica,sans-Serif" font-weight="bold" font-size="32.00" fill="#ffffff"> &#160;&#160;&#160;&#160;&#160;&#160;OrderItem &#160;&#160;&#160;&#160;&#160;&#160;</text>
<polygon fill="#e7e2dd" stroke="transparent" points="160.2,-244.96 160.2,-304.96 476.2,-304.96 476.2,-244.96 160.2,-244.96"/>
<polygon fill="none" stroke="#29235c" points="160.2,-244.96 160.2,-304.96 476.2,-304.96 476.2,-244.96 160.2,-244.96"/>
<text text-anchor="start" x="171.2" y="-266.16" font-family="Helvetica,sans-Serif" font-weight="bold" font-size="32.00" fill="#29235c">id</text>
<text text-anchor="start" x="196.09" y="-266.16" font-family="Helvetica,sans-Serif" font-size="32.00" fill="#29235c"> &#160;&#160;&#160;</text>
<text text-anchor="start" x="322.98" y="-266.16" font-family="Helvetica,sans-Serif" font-style="italic" font-size="32.00" fill="#29235c">INTEGER</text>
<polygon fill="#e7e2dd" stroke="transparent" points="160.2,-184.96 160.2,-244.96 476.2,-244.96 476.2,-184.96 160.2,-184.96"/>
<polygon fill="none" stroke="#29235c" points="160.2,-184.96 160.2,-244.96 476.2,-244.96 476.2,-184.96 160.2,-184.96"/>
<text text-anchor="start" x="170.74" y="-205.16" font-family="Helvetica,sans-Serif" font-size="32.00" fill="#29235c">order_id &#160;&#160;&#160;</text>
<text text-anchor="start" x="323.09" y="-206.16" font-family="Helvetica,sans-Serif" font-style="italic" font-size="32.00" fill="#29235c">INTEGER</text>
<polygon fill="#e7e2dd" stroke="transparent" points="160.2,-124.96 160.2,-184.96 476.2,-184.96 476.2,-124.96 160.2,-124.96"/>
<polygon fill="none" stroke="#29235c" points="160.2,-124.96 160.2,-184.96 476.2,-184.96 476.2,-124.96 160.2,-124.96"/>
<text text-anchor="start" x="171.2" y="-145.16" font-family="Helvetica,sans-Serif" font-size="32.00" fill="#29235c">part_id &#160;&#160;&#160;</text>
<text text-anchor="start" x="322.98" y="-146.16" font-family="Helvetica,sans-Serif" font-style="italic" font-size="32.00" fill="#29235c">INTEGER</text>
<polygon fill="#e7e2dd" stroke="transparent" points="160.2,-64.96 160.2,-124.96 476.2,-124.96 476.2,-64.96 160.2,-64.96"/>
<polygon fill="none" stroke="#29235c" points="160.2,-64.96 160.2,-124.96 476.2,-124.96 476.2,-64.96 160.2,-64.96"/>
<text text-anchor="start" x="171.2" y="-85.16" font-family="Helvetica,sans-Serif" font-size="32.00" fill="#29235c">quantity &#160;&#160;&#160;</text>
<text text-anchor="start" x="322.98" y="-86.16" font-family="Helvetica,sans-Serif" font-style="italic" font-size="32.00" fill="#29235c">INTEGER</text>
<polygon fill="none" stroke="#29235c" stroke-width="2" points="159.2,-63.96 159.2,-365.96 477.2,-365.96 477.2,-63.96 159.2,-63.96"/>
</g>
<!-- OrderItem&#45;&gt;Part -->
<!-- OrderItem&#45;&gt;Part -->
<g id="edge10" class="edge">
<title>OrderItem:e&#45;&gt;Part:w</title>
<path fill="none" stroke="#29235c" stroke-width="3" d="M477.2,-154.96C621.51,-154.96 587.04,-302.35 636.4,-437.96 685.2,-572.07 615.18,-1060.3 747.57,-1084.06"/>
<polygon fill="#29235c" stroke="#29235c" stroke-width="3" points="747.63,-1087.58 757.9,-1084.96 748.24,-1080.61 747.63,-1087.58"/>
<text text-anchor="middle" x="751.67" y="-1056.16" font-family="Helvetica,sans-Serif" font-size="32.00" fill="#29235c">*</text>
<text text-anchor="middle" x="486.09" y="-126.16" font-family="Helvetica,sans-Serif" font-size="32.00" fill="#29235c">1</text>
</g>
<!-- OrderItem&#45;&gt;Order -->
<!-- OrderItem&#45;&gt;Order -->
<g id="edge8" class="edge">
<title>OrderItem:e&#45;&gt;Order:w</title>
<path fill="none" stroke="#29235c" stroke-width="3" d="M477.2,-214.96C608.32,-214.96 637.89,-271.95 763.85,-274.85"/>
<polygon fill="#29235c" stroke="#29235c" stroke-width="3" points="763.86,-278.35 773.9,-274.96 763.94,-271.35 763.86,-278.35"/>
<text text-anchor="middle" x="767.67" y="-246.16" font-family="Helvetica,sans-Serif" font-size="32.00" fill="#29235c">*</text>
<text text-anchor="middle" x="486.09" y="-186.16" font-family="Helvetica,sans-Serif" font-size="32.00" fill="#29235c">1</text>
</g>
<!-- PartCategory -->
<g id="PartCategory" class="node">
<title>PartCategory</title>
<ellipse fill="none" stroke="black" stroke-width="0" cx="318.2" cy="-1877.96" rx="260.43" ry="172.57"/>
<polygon fill="#1d71b8" stroke="transparent" points="136.2,-1937.96 136.2,-1997.96 500.2,-1997.96 500.2,-1937.96 136.2,-1937.96"/>
<polygon fill="none" stroke="#29235c" points="136.2,-1937.96 136.2,-1997.96 500.2,-1997.96 500.2,-1937.96 136.2,-1937.96"/>
<text text-anchor="start" x="161.71" y="-1959.16" font-family="Helvetica,sans-Serif" font-weight="bold" font-size="32.00" fill="#ffffff"> &#160;&#160;&#160;&#160;&#160;&#160;PartCategory &#160;&#160;&#160;&#160;&#160;&#160;</text>
<polygon fill="#e7e2dd" stroke="transparent" points="136.2,-1877.96 136.2,-1937.96 500.2,-1937.96 500.2,-1877.96 136.2,-1877.96"/>
<polygon fill="none" stroke="#29235c" points="136.2,-1877.96 136.2,-1937.96 500.2,-1937.96 500.2,-1877.96 136.2,-1877.96"/>
<text text-anchor="start" x="147.2" y="-1899.16" font-family="Helvetica,sans-Serif" font-weight="bold" font-size="32.00" fill="#29235c">id</text>
<text text-anchor="start" x="172.09" y="-1899.16" font-family="Helvetica,sans-Serif" font-size="32.00" fill="#29235c"> &#160;&#160;&#160;</text>
<text text-anchor="start" x="346.98" y="-1899.16" font-family="Helvetica,sans-Serif" font-style="italic" font-size="32.00" fill="#29235c">INTEGER</text>
<polygon fill="#e7e2dd" stroke="transparent" points="136.2,-1817.96 136.2,-1877.96 500.2,-1877.96 500.2,-1817.96 136.2,-1817.96"/>
<polygon fill="none" stroke="#29235c" points="136.2,-1817.96 136.2,-1877.96 500.2,-1877.96 500.2,-1817.96 136.2,-1817.96"/>
<text text-anchor="start" x="147.2" y="-1838.16" font-family="Helvetica,sans-Serif" font-size="32.00" fill="#29235c">part_id &#160;&#160;&#160;</text>
<text text-anchor="start" x="346.98" y="-1839.16" font-family="Helvetica,sans-Serif" font-style="italic" font-size="32.00" fill="#29235c">INTEGER</text>
<polygon fill="#e7e2dd" stroke="transparent" points="136.2,-1757.96 136.2,-1817.96 500.2,-1817.96 500.2,-1757.96 136.2,-1757.96"/>
<polygon fill="none" stroke="#29235c" points="136.2,-1757.96 136.2,-1817.96 500.2,-1817.96 500.2,-1757.96 136.2,-1757.96"/>
<text text-anchor="start" x="146.72" y="-1778.16" font-family="Helvetica,sans-Serif" font-size="32.00" fill="#29235c">category_id &#160;&#160;&#160;</text>
<text text-anchor="start" x="347.09" y="-1779.16" font-family="Helvetica,sans-Serif" font-style="italic" font-size="32.00" fill="#29235c">INTEGER</text>
<polygon fill="none" stroke="#29235c" stroke-width="2" points="135.2,-1756.96 135.2,-1998.96 501.2,-1998.96 501.2,-1756.96 135.2,-1756.96"/>
</g>
<!-- PartCategory&#45;&gt;Category -->
<!-- PartCategory&#45;&gt;Category -->
<g id="edge12" class="edge">
<title>PartCategory:e&#45;&gt;Category:w</title>
<path fill="none" stroke="#29235c" stroke-width="3" d="M501.2,-1787.96C646.57,-1787.96 664.26,-1902.4 803.65,-1907.77"/>
<polygon fill="#29235c" stroke="#29235c" stroke-width="3" points="803.83,-1911.27 813.9,-1907.96 803.96,-1904.27 803.83,-1911.27"/>
<text text-anchor="middle" x="807.67" y="-1917.56" font-family="Helvetica,sans-Serif" font-size="32.00" fill="#29235c">*</text>
<text text-anchor="middle" x="510.09" y="-1797.56" font-family="Helvetica,sans-Serif" font-size="32.00" fill="#29235c">1</text>
</g>
<!-- PartCategory&#45;&gt;Part -->
<!-- PartCategory&#45;&gt;Part -->
<g id="edge14" class="edge">
<title>PartCategory:e&#45;&gt;Part:w</title>
<path fill="none" stroke="#29235c" stroke-width="3" d="M501.2,-1847.96C591.28,-1847.96 600.79,-1779.71 636.4,-1696.96 689.8,-1572.83 622.81,-1109.34 747.74,-1085.88"/>
<polygon fill="#29235c" stroke="#29235c" stroke-width="3" points="748.25,-1089.35 757.9,-1084.96 747.62,-1082.38 748.25,-1089.35"/>
<text text-anchor="middle" x="764.12" y="-1094.56" font-family="Helvetica,sans-Serif" font-size="32.00" fill="#29235c">*</text>
<text text-anchor="middle" x="510.09" y="-1857.56" font-family="Helvetica,sans-Serif" font-size="32.00" fill="#29235c">1</text>
</g>
<!-- SupplierOrder -->
<g id="SupplierOrder" class="node">
<title>SupplierOrder</title>
<ellipse fill="none" stroke="black" stroke-width="0" cx="960.9" cy="-1442.96" rx="253.29" ry="172.57"/>
<polygon fill="#1d71b8" stroke="transparent" points="783.9,-1502.96 783.9,-1562.96 1137.9,-1562.96 1137.9,-1502.96 783.9,-1502.96"/>
<polygon fill="none" stroke="#29235c" points="783.9,-1502.96 783.9,-1562.96 1137.9,-1562.96 1137.9,-1502.96 783.9,-1502.96"/>
<text text-anchor="start" x="799.08" y="-1524.16" font-family="Helvetica,sans-Serif" font-weight="bold" font-size="32.00" fill="#ffffff"> &#160;&#160;&#160;&#160;&#160;&#160;SupplierOrder &#160;&#160;&#160;&#160;&#160;&#160;</text>
<polygon fill="#e7e2dd" stroke="transparent" points="783.9,-1442.96 783.9,-1502.96 1137.9,-1502.96 1137.9,-1442.96 783.9,-1442.96"/>
<polygon fill="none" stroke="#29235c" points="783.9,-1442.96 783.9,-1502.96 1137.9,-1502.96 1137.9,-1442.96 783.9,-1442.96"/>
<text text-anchor="start" x="794.9" y="-1464.16" font-family="Helvetica,sans-Serif" font-weight="bold" font-size="32.00" fill="#29235c">id</text>
<text text-anchor="start" x="819.79" y="-1464.16" font-family="Helvetica,sans-Serif" font-size="32.00" fill="#29235c"> &#160;&#160;&#160;</text>
<text text-anchor="start" x="984.68" y="-1464.16" font-family="Helvetica,sans-Serif" font-style="italic" font-size="32.00" fill="#29235c">INTEGER</text>
<polygon fill="#e7e2dd" stroke="transparent" points="783.9,-1382.96 783.9,-1442.96 1137.9,-1442.96 1137.9,-1382.96 783.9,-1382.96"/>
<polygon fill="none" stroke="#29235c" points="783.9,-1382.96 783.9,-1442.96 1137.9,-1442.96 1137.9,-1382.96 783.9,-1382.96"/>
<text text-anchor="start" x="794.77" y="-1403.16" font-family="Helvetica,sans-Serif" font-size="32.00" fill="#29235c">supplier_id &#160;&#160;&#160;</text>
<text text-anchor="start" x="984.79" y="-1404.16" font-family="Helvetica,sans-Serif" font-style="italic" font-size="32.00" fill="#29235c">INTEGER</text>
<polygon fill="#e7e2dd" stroke="transparent" points="783.9,-1322.96 783.9,-1382.96 1137.9,-1382.96 1137.9,-1322.96 783.9,-1322.96"/>
<polygon fill="none" stroke="#29235c" points="783.9,-1322.96 783.9,-1382.96 1137.9,-1382.96 1137.9,-1322.96 783.9,-1322.96"/>
<text text-anchor="start" x="794.9" y="-1343.16" font-family="Helvetica,sans-Serif" font-size="32.00" fill="#29235c">date &#160;&#160;&#160;</text>
<text text-anchor="start" x="1041.56" y="-1344.16" font-family="Helvetica,sans-Serif" font-style="italic" font-size="32.00" fill="#29235c">DATE</text>
<polygon fill="none" stroke="#29235c" stroke-width="2" points="782.9,-1321.96 782.9,-1563.96 1138.9,-1563.96 1138.9,-1321.96 782.9,-1321.96"/>
</g>
<!-- SupplierOrder&#45;&gt;Supplier -->
<!-- SupplierOrder&#45;&gt;Supplier -->
<g id="edge16" class="edge">
<title>SupplierOrder:e&#45;&gt;Supplier:w</title>
<path fill="none" stroke="#29235c" stroke-width="3" d="M1138.9,-1412.96C1264.51,-1412.96 1250.52,-1257.81 1368.5,-1249.32"/>
<polygon fill="#29235c" stroke="#29235c" stroke-width="3" points="1368.89,-1252.81 1378.76,-1248.96 1368.65,-1245.81 1368.89,-1252.81"/>
<text text-anchor="middle" x="1372.54" y="-1220.16" font-family="Helvetica,sans-Serif" font-size="32.00" fill="#29235c">*</text>
<text text-anchor="middle" x="1130" y="-1422.56" font-family="Helvetica,sans-Serif" font-size="32.00" fill="#29235c">1</text>
</g>
<!-- SupplierOrderItem -->
<g id="SupplierOrderItem" class="node">
<title>SupplierOrderItem</title>
<ellipse fill="none" stroke="black" stroke-width="0" cx="318.2" cy="-1472.96" rx="318.4" ry="214.92"/>
<polygon fill="#1d71b8" stroke="transparent" points="95.2,-1562.96 95.2,-1622.96 541.2,-1622.96 541.2,-1562.96 95.2,-1562.96"/>
<polygon fill="none" stroke="#29235c" points="95.2,-1562.96 95.2,-1622.96 541.2,-1622.96 541.2,-1562.96 95.2,-1562.96"/>
<text text-anchor="start" x="125.27" y="-1584.16" font-family="Helvetica,sans-Serif" font-weight="bold" font-size="32.00" fill="#ffffff"> &#160;&#160;&#160;&#160;&#160;&#160;SupplierOrderItem &#160;&#160;&#160;&#160;&#160;&#160;</text>
<polygon fill="#e7e2dd" stroke="transparent" points="95.2,-1502.96 95.2,-1562.96 541.2,-1562.96 541.2,-1502.96 95.2,-1502.96"/>
<polygon fill="none" stroke="#29235c" points="95.2,-1502.96 95.2,-1562.96 541.2,-1562.96 541.2,-1502.96 95.2,-1502.96"/>
<text text-anchor="start" x="106.2" y="-1524.16" font-family="Helvetica,sans-Serif" font-weight="bold" font-size="32.00" fill="#29235c">id</text>
<text text-anchor="start" x="131.09" y="-1524.16" font-family="Helvetica,sans-Serif" font-size="32.00" fill="#29235c"> &#160;&#160;&#160;</text>
<text text-anchor="start" x="387.98" y="-1524.16" font-family="Helvetica,sans-Serif" font-style="italic" font-size="32.00" fill="#29235c">INTEGER</text>
<polygon fill="#e7e2dd" stroke="transparent" points="95.2,-1442.96 95.2,-1502.96 541.2,-1502.96 541.2,-1442.96 95.2,-1442.96"/>
<polygon fill="none" stroke="#29235c" points="95.2,-1442.96 95.2,-1502.96 541.2,-1502.96 541.2,-1442.96 95.2,-1442.96"/>
<text text-anchor="start" x="105.84" y="-1463.16" font-family="Helvetica,sans-Serif" font-size="32.00" fill="#29235c">supplier_order_id &#160;&#160;&#160;</text>
<text text-anchor="start" x="388.09" y="-1464.16" font-family="Helvetica,sans-Serif" font-style="italic" font-size="32.00" fill="#29235c">INTEGER</text>
<polygon fill="#e7e2dd" stroke="transparent" points="95.2,-1382.96 95.2,-1442.96 541.2,-1442.96 541.2,-1382.96 95.2,-1382.96"/>
<polygon fill="none" stroke="#29235c" points="95.2,-1382.96 95.2,-1442.96 541.2,-1442.96 541.2,-1382.96 95.2,-1382.96"/>
<text text-anchor="start" x="106.2" y="-1403.16" font-family="Helvetica,sans-Serif" font-size="32.00" fill="#29235c">part_id &#160;&#160;&#160;</text>
<text text-anchor="start" x="387.98" y="-1404.16" font-family="Helvetica,sans-Serif" font-style="italic" font-size="32.00" fill="#29235c">INTEGER</text>
<polygon fill="#e7e2dd" stroke="transparent" points="95.2,-1322.96 95.2,-1382.96 541.2,-1382.96 541.2,-1322.96 95.2,-1322.96"/>
<polygon fill="none" stroke="#29235c" points="95.2,-1322.96 95.2,-1382.96 541.2,-1382.96 541.2,-1322.96 95.2,-1322.96"/>
<text text-anchor="start" x="106.2" y="-1343.16" font-family="Helvetica,sans-Serif" font-size="32.00" fill="#29235c">quantity &#160;&#160;&#160;</text>
<text text-anchor="start" x="387.98" y="-1344.16" font-family="Helvetica,sans-Serif" font-style="italic" font-size="32.00" fill="#29235c">INTEGER</text>
<polygon fill="none" stroke="#29235c" stroke-width="2" points="94.2,-1321.96 94.2,-1623.96 542.2,-1623.96 542.2,-1321.96 94.2,-1321.96"/>
</g>
<!-- SupplierOrderItem&#45;&gt;Part -->
<!-- SupplierOrderItem&#45;&gt;Part -->
<g id="edge18" class="edge">
<title>SupplierOrderItem:e&#45;&gt;Part:w</title>
<path fill="none" stroke="#29235c" stroke-width="3" d="M542.2,-1412.96C713.09,-1412.96 588.76,-1098.28 747.54,-1085.37"/>
<polygon fill="#29235c" stroke="#29235c" stroke-width="3" points="748.04,-1088.85 757.9,-1084.96 747.77,-1081.86 748.04,-1088.85"/>
<text text-anchor="middle" x="764.12" y="-1056.16" font-family="Helvetica,sans-Serif" font-size="32.00" fill="#29235c">*</text>
<text text-anchor="middle" x="551.09" y="-1422.56" font-family="Helvetica,sans-Serif" font-size="32.00" fill="#29235c">1</text>
</g>
<!-- SupplierOrderItem&#45;&gt;SupplierOrder -->
<!-- SupplierOrderItem&#45;&gt;SupplierOrder -->
<g id="edge20" class="edge">
<title>SupplierOrderItem:e&#45;&gt;SupplierOrder:w</title>
<path fill="none" stroke="#29235c" stroke-width="3" d="M542.2,-1472.96C645.73,-1472.96 674.11,-1472.96 772.8,-1472.96"/>
<polygon fill="#29235c" stroke="#29235c" stroke-width="3" points="772.9,-1476.46 782.9,-1472.96 772.9,-1469.46 772.9,-1476.46"/>
<text text-anchor="middle" x="776.67" y="-1482.56" font-family="Helvetica,sans-Serif" font-size="32.00" fill="#29235c">*</text>
<text text-anchor="middle" x="551.09" y="-1482.56" font-family="Helvetica,sans-Serif" font-size="32.00" fill="#29235c">1</text>
</g>
<!-- Warranty -->
<g id="Warranty" class="node">
<title>Warranty</title>
<ellipse fill="none" stroke="black" stroke-width="0" cx="318.2" cy="-619.96" rx="258.19" ry="172.57"/>
<polygon fill="#1d71b8" stroke="transparent" points="138.2,-679.96 138.2,-739.96 499.2,-739.96 499.2,-679.96 138.2,-679.96"/>
<polygon fill="none" stroke="#29235c" points="138.2,-679.96 138.2,-739.96 499.2,-739.96 499.2,-679.96 138.2,-679.96"/>
<text text-anchor="start" x="191.56" y="-701.16" font-family="Helvetica,sans-Serif" font-weight="bold" font-size="32.00" fill="#ffffff"> &#160;&#160;&#160;&#160;&#160;&#160;Warranty &#160;&#160;&#160;&#160;&#160;&#160;</text>
<polygon fill="#e7e2dd" stroke="transparent" points="138.2,-619.96 138.2,-679.96 499.2,-679.96 499.2,-619.96 138.2,-619.96"/>
<polygon fill="none" stroke="#29235c" points="138.2,-619.96 138.2,-679.96 499.2,-679.96 499.2,-619.96 138.2,-619.96"/>
<text text-anchor="start" x="149.2" y="-641.16" font-family="Helvetica,sans-Serif" font-weight="bold" font-size="32.00" fill="#29235c">id</text>
<text text-anchor="start" x="174.09" y="-641.16" font-family="Helvetica,sans-Serif" font-size="32.00" fill="#29235c"> &#160;&#160;&#160;</text>
<text text-anchor="start" x="345.98" y="-641.16" font-family="Helvetica,sans-Serif" font-style="italic" font-size="32.00" fill="#29235c">INTEGER</text>
<polygon fill="#e7e2dd" stroke="transparent" points="138.2,-559.96 138.2,-619.96 499.2,-619.96 499.2,-559.96 138.2,-559.96"/>
<polygon fill="none" stroke="#29235c" points="138.2,-559.96 138.2,-619.96 499.2,-619.96 499.2,-559.96 138.2,-559.96"/>
<text text-anchor="start" x="149.2" y="-580.16" font-family="Helvetica,sans-Serif" font-size="32.00" fill="#29235c">part_id &#160;&#160;&#160;</text>
<text text-anchor="start" x="345.98" y="-581.16" font-family="Helvetica,sans-Serif" font-style="italic" font-size="32.00" fill="#29235c">INTEGER</text>
<polygon fill="#e7e2dd" stroke="transparent" points="138.2,-499.96 138.2,-559.96 499.2,-559.96 499.2,-499.96 138.2,-499.96"/>
<polygon fill="none" stroke="#29235c" points="138.2,-499.96 138.2,-559.96 499.2,-559.96 499.2,-499.96 138.2,-499.96"/>
<text text-anchor="start" x="149.04" y="-520.16" font-family="Helvetica,sans-Serif" font-size="32.00" fill="#29235c">expiration_date &#160;&#160;&#160;</text>
<text text-anchor="start" x="403.03" y="-521.16" font-family="Helvetica,sans-Serif" font-style="italic" font-size="32.00" fill="#29235c">DATE</text>
<polygon fill="none" stroke="#29235c" stroke-width="2" points="136.7,-498.96 136.7,-740.96 499.7,-740.96 499.7,-498.96 136.7,-498.96"/>
</g>
<!-- Warranty&#45;&gt;Part -->
<!-- Warranty&#45;&gt;Part -->
<g id="edge22" class="edge">
<title>Warranty:e&#45;&gt;Part:w</title>
<path fill="none" stroke="#29235c" stroke-width="3" d="M500.2,-589.96C611.82,-589.96 583.99,-702.41 636.4,-800.96 699.22,-919.1 624.59,-1076.72 747.85,-1084.65"/>
<polygon fill="#29235c" stroke="#29235c" stroke-width="3" points="747.79,-1088.15 757.9,-1084.96 748.01,-1081.15 747.79,-1088.15"/>
<text text-anchor="middle" x="751.67" y="-1094.56" font-family="Helvetica,sans-Serif" font-size="32.00" fill="#29235c">*</text>
<text text-anchor="middle" x="509.09" y="-599.56" font-family="Helvetica,sans-Serif" font-size="32.00" fill="#29235c">1</text>
</g>
</g>
</svg>
